<?xml version="1.0" encoding="utf-8"?>
<svg viewBox="0 0 1041.32 572.19" xmlns="http://www.w3.org/2000/svg">
  <path d="M 778.16 565.22 L 778.16 541.22 L 263.16 541.22 L 263.16 565.22 C 263.16 569.086 266.294 572.22 270.16 572.22 L 771.16 572.22 C 775.026 572.22 778.16 569.086 778.16 565.22 Z" fill="#3f3d56" style="transform-origin: 520.66px 556.72px;" transform="matrix(-1, 0, 0, -1, 0.000143055041, 0.000022438091)"/>
  <path d="M 547.614 173.695 C 551.434 169.765 555.104 165.225 555.824 159.795 C 547.684 157.665 539.354 161.665 531.744 165.235 C 508.195 176.31 483.327 184.331 457.744 189.105 C 455.744 189.475 453.604 189.885 452.094 191.265 C 449.244 193.875 449.764 200.455 452.414 203.165 C 455.274 206.085 460.564 205.665 464.414 205.875 C 495.471 207.449 525.732 195.75 547.654 173.695 L 547.614 173.695 Z" fill="#192534" style="transform-origin: 503.002px 182.608px;" transform="matrix(-1, 0, 0, -1, 0.000020273036, -0.000023157729)"/>
  <path d="M 506.978 484.794 L 302.428 484.794 C 299.698 491.023 297.549 497.49 296.008 504.114 C 295.488 506.174 295.008 508.254 294.528 510.324 C 294.108 512.144 293.708 513.974 293.328 515.794 C 292.168 521.267 291.168 526.764 290.328 532.284 C 289.521 537.484 288.855 542.701 288.328 547.934 C 287.808 552.941 287.405 557.964 287.118 563.004 C 287.118 563.144 287.118 563.284 287.118 563.434 C 286.998 565.824 287.118 568.434 288.758 570.124 C 290.198 571.574 292.398 571.894 294.448 572.034 C 311.448 573.194 327.968 567.034 344.928 567.944 C 349.528 568.214 353.228 568.944 357.508 568.064 C 358.185 567.937 358.853 567.767 359.508 567.554 C 360.508 567.244 361.438 566.914 362.388 566.554 C 368.898 564.224 374.968 561.284 381.968 559.974 C 393.888 557.724 406.118 558.164 418.218 557.294 C 419.218 557.234 420.218 557.154 421.218 557.054 C 422.448 556.954 423.678 556.824 424.898 556.674 C 435.267 555.299 445.446 552.75 455.238 549.074 C 460.518 547.164 465.718 545.004 470.848 542.714 C 472.318 542.054 473.778 541.394 475.238 540.714 C 477.838 539.504 480.478 538.224 483.058 536.834 C 484.058 536.304 485.058 535.764 485.998 535.194 C 493.768 530.684 500.788 525.084 504.878 517.484 C 505.188 516.924 505.468 516.354 505.738 515.774 C 506.008 515.194 506.208 514.704 506.428 514.154 C 509.998 504.884 508.748 494.884 506.978 484.794 Z" fill="#202f42" style="transform-origin: 397.899px 528.487px;" transform="matrix(-1, 0, 0, -1, 0.000077072113, 0.000021300188)"/>
  <path d="M 506.978 484.794 L 302.428 484.794 C 299.698 491.023 297.549 497.49 296.008 504.114 C 295.488 506.174 295.008 508.254 294.528 510.324 C 294.108 512.144 293.708 513.974 293.328 515.794 C 292.168 521.267 291.168 526.764 290.328 532.284 C 289.521 537.484 288.855 542.701 288.328 547.934 C 287.808 552.941 287.405 557.964 287.118 563.004 C 287.118 563.144 287.118 563.284 287.118 563.434 C 286.998 565.824 287.118 568.434 288.758 570.124 C 290.198 571.574 292.398 571.894 294.448 572.034 C 311.448 573.194 327.968 567.034 344.928 567.944 C 349.528 568.214 353.228 568.944 357.508 568.064 C 358.185 567.937 358.853 567.767 359.508 567.554 C 360.508 567.244 361.438 566.914 362.388 566.554 C 368.898 564.224 374.968 561.284 381.968 559.974 C 393.888 557.724 406.118 558.164 418.218 557.294 C 419.218 557.234 420.218 557.154 421.218 557.054 C 422.448 556.954 423.678 556.824 424.898 556.674 C 435.267 555.299 445.446 552.75 455.238 549.074 C 460.518 547.164 465.718 545.004 470.848 542.714 C 472.318 542.054 473.778 541.394 475.238 540.714 C 477.838 539.504 480.478 538.224 483.058 536.834 C 484.058 536.304 485.058 535.764 485.998 535.194 C 493.768 530.684 500.788 525.084 504.878 517.484 C 505.188 516.924 505.468 516.354 505.738 515.774 C 506.008 515.194 506.208 514.704 506.428 514.154 C 509.998 504.884 508.748 494.884 506.978 484.794 Z" opacity="0.1" style="transform-origin: 397.899px 528.487px;" transform="matrix(-1, 0, 0, -1, 0.000077072113, 0.000021300188)"/>
  <path d="M 713.918 497.953 L 483.368 497.953 C 478.188 503.653 474.798 511.083 475.638 518.653 C 475.939 521.801 476.467 524.922 477.218 527.993 C 477.298 528.323 477.388 528.643 477.478 528.993 C 478.955 534.807 482.625 539.824 487.718 542.993 C 496.798 548.823 507.718 551.103 517.718 554.883 C 523.088 556.883 528.268 559.413 533.638 561.423 C 541.361 564.208 549.335 566.244 557.448 567.503 C 558.348 567.653 559.258 567.803 560.158 567.933 C 561.058 568.063 562.008 568.223 562.938 568.353 C 567.938 569.073 572.938 569.663 577.988 570.243 C 588.988 571.533 600.158 572.813 611.228 571.833 C 620.072 570.915 628.778 568.962 637.168 566.013 C 643.488 563.903 649.728 561.453 655.928 559.013 C 665.598 555.193 675.348 551.283 683.978 545.553 C 684.728 545.053 685.458 544.553 686.188 544.023 C 691.931 539.853 696.968 534.789 701.108 529.023 C 703.509 525.718 705.62 522.212 707.418 518.543 C 710.597 512.042 712.788 505.102 713.918 497.953 Z" fill="#202f42" style="transform-origin: 594.714px 535.066px;" transform="matrix(-1, 0, 0, -1, 0.000023969404, 0.000143635661)"/>
  <path d="M 481.809 312.937 C 478.029 304.647 471.619 297.137 463.029 294.087 C 458.459 292.467 453.529 292.177 448.869 290.847 C 444.209 289.517 439.509 286.767 437.869 282.217 C 437.267 280.224 436.977 278.149 437.009 276.067 C 436.299 256.517 435.719 236.197 443.529 218.257 C 450.279 202.777 462.649 190.547 474.869 178.887 C 489.169 165.247 504.309 151.417 523.119 145.317 C 534.119 141.767 547.069 141.377 556.169 148.447 C 559.909 151.357 562.689 155.287 565.419 159.167 C 571.419 167.717 577.519 176.387 581.299 186.167 C 589.049 206.167 586.439 228.447 583.709 249.697 C 583.693 250.959 583.216 252.171 582.369 253.107 C 581.309 253.997 579.759 253.877 578.369 253.797 C 568.639 253.217 558.019 258.207 554.759 267.387 C 553.359 271.387 553.399 275.667 553.469 279.867 L 553.849 304.087 C 553.849 306.697 553.919 309.397 552.939 311.827 C 551.229 316.047 546.939 318.517 542.829 320.557 C 529.577 327.186 515.763 332.627 501.549 336.817 C 495.329 338.647 490.599 341.697 487.829 335.017 C 484.899 328.067 485.029 320.007 481.809 312.937 Z" fill="#fbbebe" style="transform-origin: 511.529px 240.978px;" transform="matrix(-1, 0, 0, -1, -0.000040418449, 0.000040229977)"/>
  <path d="M 481.809 312.937 C 478.029 304.647 471.619 297.137 463.029 294.087 C 458.459 292.467 453.529 292.177 448.869 290.847 C 444.209 289.517 439.509 286.767 437.869 282.217 C 437.267 280.224 436.977 278.149 437.009 276.067 C 436.299 256.517 435.719 236.197 443.529 218.257 C 450.279 202.777 462.649 190.547 474.869 178.887 C 489.169 165.247 504.309 151.417 523.119 145.317 C 534.119 141.767 547.069 141.377 556.169 148.447 C 559.909 151.357 562.689 155.287 565.419 159.167 C 571.419 167.717 577.519 176.387 581.299 186.167 C 589.049 206.167 586.439 228.447 583.709 249.697 C 583.693 250.959 583.216 252.171 582.369 253.107 C 581.309 253.997 579.759 253.877 578.369 253.797 C 568.639 253.217 558.019 258.207 554.759 267.387 C 553.359 271.387 553.399 275.667 553.469 279.867 L 553.849 304.087 C 553.849 306.697 553.919 309.397 552.939 311.827 C 551.229 316.047 546.939 318.517 542.829 320.557 C 529.577 327.186 515.763 332.627 501.549 336.817 C 495.329 338.647 490.599 341.697 487.829 335.017 C 484.899 328.067 485.029 320.007 481.809 312.937 Z" opacity="0.1" style="transform-origin: 511.529px 240.978px;" transform="matrix(-1, 0, 0, -1, -0.000040418449, 0.000040229977)"/>
  <circle cx="-475.66" cy="114.69" r="74" fill="#fbbebe" style="" transform="matrix(-1, 0, 0, 1, 0, 0)"/>
  <path d="M 504.141 392.459 L 495.871 371.929 C 494.001 367.289 492.101 362.599 489.221 358.509 C 481.271 347.239 465.611 342.079 452.551 346.419 C 440.221 350.489 429.281 362.029 416.551 359.259 C 409.951 357.819 404.691 352.519 401.751 346.439 C 398.811 340.359 397.871 333.519 397.241 326.789 C 394.331 295.66 397.3 264.261 405.991 234.229 C 406.891 231.129 407.991 227.879 410.381 225.739 C 413.301 223.179 417.491 222.799 421.381 222.579 C 439.381 221.506 457.414 220.872 475.481 220.679 C 486.581 220.549 497.731 220.589 508.691 222.309 C 519.651 224.029 530.141 227.309 540.951 229.469 C 551.061 231.469 561.411 232.399 571.291 235.309 C 572.901 235.779 574.601 236.379 575.591 237.719 C 576.357 238.998 576.707 240.483 576.591 241.969 C 576.591 247.729 574.801 253.329 572.861 258.749 C 567.861 272.579 562.021 286.189 559.241 300.619 C 555.411 320.469 557.661 340.919 557.241 361.139 C 557.101 368.379 556.601 375.739 554.111 382.549 C 551.621 389.359 546.911 395.619 540.281 398.549 C 528.851 403.639 509.611 405.919 504.141 392.459 Z" style="fill: rgb(134, 0, 255); transform-origin: 486.386px 311.584px;" transform="matrix(-1, 0, 0, -1, 0.000019603345, -0.000048477048)"/>
  <path d="M 593.48 372.136 C 588.2 376.616 588.48 384.606 587.85 391.506 C 586.7 404.446 581.07 416.506 575.53 428.266 L 558.98 463.426 C 552.06 478.086 544.98 494.776 550.69 509.966 C 552.6 515.086 555.87 519.646 557.55 524.846 C 559.23 530.046 558.89 536.546 554.63 539.976 C 549.21 544.336 541.2 541.366 535.07 538.056 C 523.8 531.943 512.935 525.112 502.54 517.606 C 499.72 515.606 496.76 513.236 495.84 509.876 C 495.27 507.786 495.57 505.496 494.77 503.476 C 493.21 499.476 488.35 498.276 484.2 497.336 C 449.632 489.368 419.868 467.524 401.9 436.936 C 398.951 432.025 396.601 426.777 394.9 421.306 C 392.9 414.306 392.38 407.036 391.9 399.806 C 390.62 381.206 389.387 362.616 388.2 344.036 C 387.67 335.806 387.15 327.376 389.4 319.446 C 390.85 314.346 393.4 309.576 394.48 304.376 C 396.67 293.566 392.05 282.526 386.28 273.126 C 380.51 263.726 373.41 254.906 369.79 244.536 C 367.663 237.937 366.57 231.049 366.55 224.116 C 366.018 200.718 372.503 177.696 385.17 158.016 C 397.46 156.206 406.66 168.426 417.95 173.616 C 434.5 181.206 455.4 175.126 470.95 184.506 C 474.75 186.796 478.04 189.916 482.06 191.806 C 485.71 193.516 489.76 194.126 493.75 194.706 C 508.49 196.836 523.42 198.806 538.23 197.206 C 559.23 194.936 580.94 185.606 600.69 193.136 C 605.56 194.996 610.02 197.806 614.91 199.616 C 632.91 206.286 652.91 198.316 672.08 199.786 C 669.08 199.946 667.74 203.346 667.18 206.336 C 665.92 212.969 664.807 219.636 663.84 226.336 C 662.99 232.146 662.26 238.116 663.59 243.826 C 664.81 249.126 667.73 253.826 670.18 258.686 C 677.91 273.986 681.18 291.146 687.81 306.966 C 690.96 314.506 694.81 321.706 698.55 328.966 C 713.649 358.767 725.411 390.143 733.62 422.526 C 724.89 438.196 716.98 454.526 708.25 470.186 C 705.72 474.726 703.12 479.346 699.25 482.856 C 693.71 487.936 686.2 490.146 678.97 492.196 C 672.76 493.966 666.46 495.746 659.97 495.756 C 653.48 495.766 635.22 502.546 630.84 497.816 C 626.32 492.936 636.49 477.176 636.26 470.536 C 636.03 463.896 636.76 457.176 635.66 450.616 C 634.06 441.046 628.66 432.516 626.21 423.136 C 625.241 418.697 624.497 414.211 623.98 409.696 C 622.347 399.6 619.704 389.694 616.09 380.126 C 615.431 378.111 614.456 376.214 613.2 374.506 C 608.46 368.706 600.84 370.906 593.48 372.136 Z" fill="#192534" style="transform-origin: 550.07px 349.998px;" transform="matrix(-1, 0, 0, -1, 0.00002217007, 0.000075141508)"/>
  <path d="M 337.435 544.776 C 339.335 542.456 341.935 540.866 344.285 539.016 C 353.535 531.766 358.975 520.736 367.145 512.286 C 371.265 508.016 376.055 504.446 380.445 500.456 C 390.655 491.156 398.565 479.666 406.385 468.286 C 408.385 465.386 410.385 462.416 411.385 459.046 C 413.135 453.296 411.715 446.886 408.525 441.786 C 405.335 436.686 400.525 432.786 395.335 429.726 C 392.625 428.12 389.801 426.716 386.885 425.526 C 380.885 423.086 375.165 429.696 378.545 435.216 C 380.691 438.677 382.653 442.249 384.425 445.916 C 385.555 447.949 386.205 450.213 386.325 452.536 C 386.245 456.616 383.025 460.076 379.325 461.786 C 375.625 463.496 371.455 463.786 367.405 464.286 C 344.501 467.054 322.71 475.724 304.165 489.446 C 293.665 497.246 283.545 508.676 285.215 521.646 C 286.455 531.326 294.115 539.026 302.525 543.986 C 309.356 547.994 316.868 550.706 324.685 551.986 C 326.885 552.346 332.405 553.856 334.375 552.336 C 336.125 551.036 335.795 546.776 337.435 544.776 Z" fill="#fbbebe" style="transform-origin: 348.588px 489.003px;" transform="matrix(-1, 0, 0, -1, -0.000046985636, 0.000019708821)"/>
  <path d="M 337.435 544.776 C 339.335 542.456 341.935 540.866 344.285 539.016 C 353.535 531.766 358.975 520.736 367.145 512.286 C 371.265 508.016 376.055 504.446 380.445 500.456 C 390.655 491.156 398.565 479.666 406.385 468.286 C 408.385 465.386 410.385 462.416 411.385 459.046 C 413.135 453.296 411.715 446.886 408.525 441.786 C 405.335 436.686 400.525 432.786 395.335 429.726 C 392.625 428.12 389.801 426.716 386.885 425.526 C 380.885 423.086 375.165 429.696 378.545 435.216 C 380.691 438.677 382.653 442.249 384.425 445.916 C 385.555 447.949 386.205 450.213 386.325 452.536 C 386.245 456.616 383.025 460.076 379.325 461.786 C 375.625 463.496 371.455 463.786 367.405 464.286 C 344.501 467.054 322.71 475.724 304.165 489.446 C 293.665 497.246 283.545 508.676 285.215 521.646 C 286.455 531.326 294.115 539.026 302.525 543.986 C 309.356 547.994 316.868 550.706 324.685 551.986 C 326.885 552.346 332.405 553.856 334.375 552.336 C 336.125 551.036 335.795 546.776 337.435 544.776 Z" opacity="0.1" style="transform-origin: 348.588px 489.003px;" transform="matrix(-1, 0, 0, -1, -0.000046985636, 0.000019708821)"/>
  <path d="M 555.228 90.086 C 545.228 79.846 529.168 79.416 514.848 79.666 L 515.318 85.276 L 495.178 78.056 C 500.399 81.936 504.877 86.726 508.398 92.196 C 505.788 94.486 501.698 94.416 498.598 92.836 C 495.498 91.256 493.218 88.466 491.268 85.586 C 479.684 68.236 476.971 46.436 483.948 26.776 C 479.948 24.556 474.848 25.206 471.008 27.626 C 467.168 30.046 464.488 33.986 462.668 38.146 C 461.478 40.866 460.238 44.086 457.398 44.936 C 455.018 45.646 452.398 44.196 451.078 42.086 C 449.893 39.883 449.415 37.37 449.708 34.886 C 450.078 29.066 454.328 23.546 455.178 17.786 C 456.028 12.026 464.628 7.546 460.178 3.786 C 458.898 2.696 445.768 -0.274 444.108 -0.014 C 441.858 0.336 440.368 2.506 439.428 4.576 C 434.948 14.416 436.558 25.916 433.908 36.396 C 431.778 44.826 426.978 52.306 422.248 59.606 C 420.978 61.733 419.479 63.715 417.778 65.516 C 416.208 67.056 414.268 68.386 413.508 70.446 C 412.748 72.506 414.148 75.446 416.318 75.116 C 412.815 78.503 409.047 81.603 405.048 84.386 C 409.008 89.399 412.881 94.476 416.668 99.616 C 417.968 101.376 419.318 103.616 418.368 105.616 C 417.813 106.532 417.031 107.29 416.098 107.816 L 405.758 114.816 C 405.528 119.566 415.198 117.816 416.688 122.306 C 416.95 123.499 416.86 124.743 416.428 125.886 L 412.908 138.726 L 426.278 132.666 C 427.898 131.926 429.628 131.176 431.398 131.436 C 434.928 131.946 436.628 136.126 436.808 139.696 C 436.988 143.266 436.418 147.106 438.188 150.216 C 444.241 150.456 450.291 150.413 456.338 150.086 C 456.719 153.129 455.914 156.202 454.088 158.666 L 498.768 161.146 C 506.398 161.566 514.238 161.956 521.488 159.556 C 523.948 158.736 526.428 157.556 529.008 157.846 C 531.588 158.136 534.188 160.516 533.448 162.996 C 540.144 159.215 546.269 154.502 551.638 148.996 C 553.087 147.27 554.839 145.823 556.808 144.726 C 558.808 143.786 561.548 143.826 563.068 145.486 C 564.288 146.816 564.898 149.136 566.698 149.216 C 567.818 149.216 568.698 148.336 569.408 147.446 C 571.962 144.178 574.043 140.566 575.588 136.716 C 578.794 137.148 581.934 137.975 584.938 139.176 C 581.818 136.546 581.738 131.646 583.228 127.846 C 584.718 124.046 587.418 120.846 589.228 117.206 C 591.029 113.297 592.239 109.141 592.818 104.876 C 593.728 99.536 593.738 92.806 588.998 90.186 C 584.878 87.906 579.768 90.336 575.998 93.186 C 565.618 100.966 563.638 98.686 555.228 90.086 Z" style="fill: rgb(99, 6, 255); transform-origin: 499.169px 81.483px;" transform="matrix(-1, 0, 0, -1, 0.000020118551, 0.000003284098)"/>
  <path d="M 323.754 513.21 L 393.044 519.46 C 398.833 519.979 403.172 524.987 402.864 530.79 L 402.814 531.79 C 402.579 536.346 399.504 540.261 395.134 541.57 L 383.934 544.93 C 382.925 545.233 381.877 545.388 380.824 545.39 L 355.414 545.39 C 354.719 545.388 354.026 545.321 353.344 545.19 C 347.974 544.14 323.264 539.28 322.344 538.39 C 321.854 537.89 318.914 535.69 316.074 533.59 C 312.6 531.024 310.991 526.634 311.984 522.43 L 312.194 521.51 C 313.422 516.237 318.365 512.688 323.754 513.21 Z" fill="#464a5f" style="transform-origin: 357.287px 529.275px;" transform="matrix(-1, 0, 0, -1, 0.00007543528, 0.000021331942)"/>
  <path d="M 308.66 525.302 L 336.66 533.302 L 388.66 540.302 C 388.66 540.302 421.66 549.302 424.66 521.302 L 421.86 516.562 C 421.86 516.562 424.66 534.302 390.66 529.302 C 390.66 529.302 329.53 531.352 332.1 507.302 C 332.1 507.322 310.66 511.302 308.66 525.302 Z" fill="#9333ea" style="transform-origin: 366.66px 524.491px;" transform="matrix(-1, 0, 0, -1, -0.000046257261, -0.000100931178)"/>
  <ellipse cx="-386.66" cy="505.69" rx="7" ry="1" fill="#9333ea" style="" transform="matrix(-1, 0, 0, 1, 0, 0)"/>
  <rect x="-329.16" y="506.19" width="5" height="9" fill="#9333ea" style="" transform="matrix(-1, 0, 0, 1, 0, 0)"/>
  <rect x="-389.16" y="506.19" width="5" height="9" fill="#9333ea" style="" transform="matrix(-1, 0, 0, 1, 0, 0)"/>
  <ellipse cx="675.5" cy="668.09" rx="2.5" ry="8" transform="matrix(-0.35771602392196655, -0.9338300824165345, -0.9338300824165344, 0.35771602392196655, 1193.2009517798124, 895.9608945202864)" fill="#9333ea" style=""/>
  <path d="M 392.041 503.932 C 394.181 501.702 396.361 499.432 399.111 498.032 C 401.833 496.824 404.729 496.058 407.691 495.762 C 437.985 491.095 468.171 485.875 498.251 480.102 C 506.721 478.462 515.251 476.762 523.251 473.472 C 527.331 471.782 531.251 469.682 535.251 467.912 C 558.251 457.822 584.251 458.472 609.341 459.312 C 614.251 459.472 619.341 459.672 623.771 461.722 C 627.081 463.232 630.111 466.102 630.411 469.722 C 630.931 476.012 623.781 479.722 618.071 482.432 C 604.441 488.862 592.561 499.322 585.381 512.582 C 584.101 514.922 583.061 518.072 584.861 520.052 C 586.211 521.532 588.501 521.542 590.511 521.462 C 598.911 521.135 607.311 521.222 615.711 521.722 C 620.061 521.992 625.821 524.052 625.131 528.342 C 624.831 530.182 623.311 531.552 621.871 532.752 C 614.301 539.112 605.711 545.662 595.821 545.472 C 590.631 545.372 585.681 543.392 580.821 541.722 C 554.641 532.842 526.451 532.352 498.821 532.532 C 492.061 532.532 485.251 532.662 478.631 534.042 C 473.194 535.328 467.867 537.043 462.701 539.172 C 445.941 545.562 429.111 551.992 413.591 560.962 C 407.421 564.522 400.541 568.642 393.661 566.812 C 390.575 565.81 387.766 564.097 385.461 561.812 C 377.271 554.412 370.361 545.352 372.691 533.992 C 375.061 522.052 383.901 512.432 392.041 503.932 Z" fill="#fbbebe" style="transform-origin: 501.335px 513.071px;" transform="matrix(-1, 0, 0, -1, 0.000081241008, 0.000142749173)"/>
  <path d="M 648.233 448.683 C 650.813 440.333 652.323 431.493 656.763 423.963 C 661.473 415.963 669.313 409.763 672.033 400.893 C 673.953 394.613 673.033 387.893 673.033 381.303 C 673.033 373.833 674.443 366.133 678.573 359.913 C 680.653 356.773 683.363 354.113 685.733 351.183 C 696.243 338.183 699.483 320.823 700.793 304.183 C 690.793 309.843 679.093 315.683 668.263 311.793 C 663.883 310.213 660.183 307.173 656.743 304.023 C 650.067 297.928 643.965 291.233 638.513 284.023 C 635.653 280.253 632.843 275.643 634.083 271.083 C 628.163 279.683 622.163 288.343 617.563 297.803 C 614.303 304.563 611.773 311.703 607.863 318.123 C 602.943 326.193 596.013 332.823 590.183 340.263 C 577.083 356.983 569.733 377.683 566.163 398.573 C 562.593 419.463 562.443 440.863 562.553 462.103 C 562.553 469.103 562.703 476.383 565.653 482.753 C 567.403 486.543 570.073 489.823 572.723 493.053 C 576.083 497.163 579.543 501.353 584.113 504.053 C 598.653 512.613 614.253 498.423 623.973 488.713 C 635.183 477.532 643.509 463.795 648.233 448.683 Z" fill="#192534" style="transform-origin: 631.662px 388.887px;" transform="matrix(-1, 0, 0, -1, 0.00002545856, -0.00004536142)"/>
  <path d="M 414.142 465.389 C 415.489 464.16 416.577 462.674 417.342 461.019 C 418.102 459.019 417.902 456.819 417.742 454.689 C 416.794 442.006 417.694 429.253 420.412 416.829 C 422.042 409.319 424.102 400.629 419.312 394.619 C 418.572 393.829 417.902 392.976 417.312 392.069 C 415.092 387.909 419.192 383.379 422.312 379.809 C 431.792 368.809 433.312 351.599 425.962 339.049 C 424.572 336.659 422.872 334.399 422.092 331.759 C 421.565 329.587 421.356 327.35 421.472 325.119 L 421.512 308.389 C 411.002 309.799 399.252 310.899 390.802 304.489 C 383.672 299.089 380.852 289.689 374.802 283.149 C 368.932 276.849 359.802 272.789 357.512 264.489 L 357.632 299.059 C 357.781 303.652 357.533 308.249 356.892 312.799 C 355.692 319.949 352.582 326.639 350.762 333.659 C 348.382 342.839 348.232 352.429 348.092 361.919 C 347.862 377.589 347.642 393.429 350.892 408.759 C 352.222 414.999 354.112 421.109 355.572 427.319 C 358.222 438.519 359.572 450.179 364.222 460.699 C 368.872 471.219 378.002 480.759 389.462 481.889 C 401.532 483.099 406.652 473.219 414.142 465.389 Z" fill="#192534" style="transform-origin: 389.286px 373.24px;" transform="matrix(-1, 0, 0, -1, -0.000045345341, 0.000015043099)"/>
  <ellipse cx="677" cy="658.09" rx="7" ry="13" transform="matrix(-0.8660250306129456, -0.5, -0.5, 0.8660250306129457, 1241.5112554877387, 262.75980143772506)" fill="#fbbebe" style=""/>
  <ellipse cx="677" cy="658.09" rx="7" ry="13" transform="matrix(-0.8660250306129456, -0.5, -0.5, 0.8660250306129457, 1241.5112554877387, 262.75980143772506)" opacity="0.1" style=""/>
</svg>